<?xml version="1.0" encoding="utf-8"?>
<!-- Generator: Adobe Illustrator 15.1.0, SVG Export Plug-In . SVG Version: 6.00 Build 0)  -->
<!DOCTYPE svg PUBLIC "-//W3C//DTD SVG 1.0//EN" "http://www.w3.org/TR/2001/REC-SVG-20010904/DTD/svg10.dtd">
<svg version="1.0" id="Layer_1" xmlns="http://www.w3.org/2000/svg" xmlns:xlink="http://www.w3.org/1999/xlink" x="0px" y="0px"
	 width="864px" height="864px" viewBox="0 0 864 864" enable-background="new 0 0 864 864" xml:space="preserve">
<g>
	<rect x="423.477" y="780.575" fill="#30C1FD" width="15.379" height="81.425"/>
	<path fill="#30C1FD" d="M432.451,2.545L6,429.458h70.627V839.48c0,12.437,10.083,22.52,22.519,22.52h229.507V508.917h-17.937
		v235.788c-0.242,50.076-72.347,50.076-71.763,0V488.407c0-54.753,41.036-110.207,105.075-110.207h174.271
		c64.066,0.977,106.626,55.454,107.651,110.207v256.298c-0.865,50.458-72.602,50.458-71.755,0V508.917h-17.944V862h229.502
		c12.436,0,22.519-10.083,22.519-22.52V429.458h70.627L432.451,2.545z M432.453,347.942c-46.003,0-83.292-37.285-83.292-83.288
		c0-46.002,37.289-83.295,83.292-83.295c45.995,0,83.295,37.293,83.295,83.295C515.748,310.657,478.448,347.942,432.453,347.942z"/>
</g>
</svg>
